PathFileType	4	(X/Y/Z)	66_2_43_p0_0-496.trc
DataRate	CameraRate	NumFrames	NumMarkers	Units	OrigDataRate	OrigDataStartFrame	OrigNumFrames
59.0	59.0	7	27	m	59.0	310	497
Frame#	Time	RHip			RKnee			RAnkle			RBigToe			RSmallToe			RHeel			LHip			LKnee			LAnkle			LBigToe			LSmallToe			LHeel			Neck			Head			Nose			RShoulder			RElbow			RWrist			RThumb			RIndex			RPinky			LShoulder			LElbow			LWrist			LThumb			LIndex			LPinky			
		X1	Y1	Z1	X2	Y2	Z2	X3	Y3	Z3	X4	Y4	Z4	X5	Y5	Z5	X6	Y6	Z6	X7	Y7	Z7	X8	Y8	Z8	X9	Y9	Z9	X10	Y10	Z10	X11	Y11	Z11	X12	Y12	Z12	X13	Y13	Z13	X14	Y14	Z14	X15	Y15	Z15	X16	Y16	Z16	X17	Y17	Z17	X18	Y18	Z18	X19	Y19	Z19	X20	Y20	Z20	X21	Y21	Z21	X22	Y22	Z22	X23	Y23	Z23	X24	Y24	Z24	X25	Y25	Z25	X26	Y26	Z26	X27	Y27	Z27	
310	5.254237288135593	0.5210986421686296	0.887302650778949	0.8035536740155107	0.5120293252950138	0.9733725274452972	1.2078341193829658	0.51411031682112	1.1007622340033059	1.6001775212186025	0.4902048478270758	0.900139939727375	1.651732997043444	0.5590696254289366	0.9254729510212506	1.6424184352851046	0.4895768223056437	1.1935339740652822	1.654017951350107	0.32108307910974354	0.9401237333257427	0.8015556834350359	0.3221542848770261	1.0310202283213301	1.2082983273417065	0.317509021747523	1.151458612481718	1.5881246590321438	0.32210508711924213	0.9293224096319171	1.6354174064990818	0.2666709861769885	1.022449829311404	1.646878670602602	0.34580483085796165	1.2314247623917733	1.6490317536577073	0.44201816534524657	0.8180867663862421	0.25823001705887944	0.46836939917879544	0.683669380389434	0.03660838873143069	0.47636869746047517	0.6854938742993094	0.16929327196808178	0.575097825749867	0.7843618164360233	0.3405187535055255	0.6564583465338137	0.8566034325722931	0.5901125510122038	0.5209256692301815	0.6636305677528708	0.4974940585719078	0.424464885681655	0.6327424203170259	0.41595523735828777	0.4282478925224989	0.6328336333091805	0.4195708849198781	0.42488764043883764	0.647886212389969	0.4897124322853101	0.30107363964936373	0.8075935118723472	0.3186206072108162	0.21378131537191444	0.6800578462163224	0.5085285384058013	0.2648220669655227	0.7133140715208499	0.32032649593080387	0.27972289647924137	0.6932277233714677	0.22498984790778664	0.2770404038790292	0.682439673271632	0.2003674912586503	0.2668027475422146	0.6903817526684919	0.21447352085569768
311	5.271186440677966	0.5211385675756366	0.8871169229951515	0.803464217667516	0.5121358651350333	0.973657830835983	1.2080497149904983	0.5131138444519824	1.1016595863278131	1.6049692471245112	0.49276808953429824	0.8805753300189239	1.643828075132456	0.565076107561105	0.9208250041323784	1.6451247997509575	0.49247136799910163	1.2107087664507377	1.6650338116283816	0.32099812050788445	0.9400142883018076	0.8015059853440216	0.32208721205467733	1.0310283267843	1.208286069333296	0.3175718399480238	1.1514422455274975	1.5880911810907858	0.3218055868313814	0.9290273023312021	1.635180537901544	0.2710359812682127	1.0067968037643982	1.64100899428465	0.3458760568175136	1.2302547670304462	1.6485081481658879	0.4462901971395068	0.8195266382678784	0.26183102166435535	0.468475142234712	0.6839859033509074	0.04011180791497552	0.4764977499434129	0.6853589439094043	0.16565807401628027	0.5750430401314534	0.7839836443141444	0.34065018673684205	0.6564476695308119	0.8565733433526955	0.5900472388056738	0.5172501844862138	0.6650195600524674	0.5010085343644556	0.42414607380863195	0.6470011408103407	0.4134173487291927	0.423738628224446	0.6451808705732097	0.41784106089876843	0.4203604111216746	0.6500837857682731	0.4933106616415146	0.30404984234691873	0.8198310115197115	0.3173978785247255	0.2134466306295572	0.679753406442682	0.5083328065886495	0.26841761230199607	0.7148121031950962	0.3131450424613703	0.28043480263604825	0.6887026329169778	0.21421911239001734	0.2671392279706854	0.6868419821872617	0.1966118647465281	0.2572792252229188	0.6918835881814741	0.2112467496992042
312	5.288135593220339	0.5210270983475711	0.8872477489993772	0.8034662050828354	0.507845877334633	0.9548974972827954	1.1951004951477648	0.5139157683594062	1.1006013813715205	1.6000936847322593	0.4980562397779474	0.894195942490151	1.6490676463729046	0.5623047777653564	0.9366167136372661	1.6478705667963327	0.48841353500320445	1.194168219556368	1.6594144571814984	0.32111374098020967	0.9399542037145763	0.8014465531266132	0.32230843866955033	1.0266931228386662	1.1988152974166797	0.3175162583193716	1.1512435481419572	1.5880792272391644	0.32216335513907923	0.9272726247102442	1.6341872619483322	0.27158226540355834	1.0044008330050964	1.6395630573518334	0.3440425220379972	1.2327856215304085	1.6492727980639925	0.44646866274971725	0.8168937616150125	0.2583725314849768	0.4685930840239983	0.6834297185755573	0.036893066925225475	0.4766521183171704	0.6857417521248916	0.16562716596894278	0.5749992559613013	0.7836138115418289	0.3406940737444162	0.6605706037203932	0.8712970898038789	0.5940985278139845	0.5294714503497843	0.6668336262539877	0.5048260373070643	0.42817588658312034	0.6341398147647066	0.4117540032131527	0.42877101259081113	0.6200210687989517	0.41903059097467893	0.42205791086045563	0.6485504907197299	0.4978403526958607	0.30398136149195276	0.8199203239526633	0.3173580147750616	0.21323515506109855	0.6800828484824875	0.5081130349777153	0.2721844716113496	0.7144924873038576	0.31614789415430566	0.28285470745122415	0.7010916500113714	0.21699768707297587	0.2671812065758858	0.6878885791472972	0.2005523936843384	0.26332325286141955	0.6657955846078174	0.21446142173901853
313	5.305084745762712	0.5209890355947028	0.8866421526645278	0.8033677183227889	0.506876790639799	0.9561080910802585	1.1996214565081402	0.5132260526441804	1.102808853440552	1.6050542846189266	0.49286449884231937	0.8818291839984002	1.6443439627611496	0.5648907760365681	0.9224672031970483	1.641802633052455	0.4928641719737204	1.2121795146250665	1.6654777284731614	0.32105304375889876	0.9398927633525996	0.80146788239065	0.3220953127043116	1.0310217763166636	1.208283351824455	0.31746763144704176	1.1511508804111916	1.5881308074569047	0.3219486643142007	0.9277459298971825	1.6345097463419762	0.27141857610871684	1.0049805289811253	1.639983169706838	0.34422010839468575	1.2328457970937587	1.654403855527185	0.44721984914118484	0.8192851217208623	0.25826201884131056	0.46907531763368354	0.6856106087847356	0.04003222629967098	0.47656631203282884	0.6858469585166759	0.16551956711901417	0.5750138568268219	0.7839491057591473	0.34062015737976753	0.6651572070778905	0.870177599136759	0.5937303234145825	0.5299350681027183	0.6657031870163918	0.5013088072032864	0.4318168686469382	0.6348736162771452	0.41453274950831465	0.432303184022009	0.6326564391248789	0.41952060562399723	0.42259178140912995	0.6484699489751574	0.4980606786885855	0.304139579622573	0.8206572447418775	0.3174758635075297	0.2132005607563504	0.6804129851830234	0.5079672829327257	0.2720908891903205	0.7146375470873563	0.3128448521692691	0.2878991070968688	0.7040178237615732	0.21493962409369516	0.27960684393940183	0.698257319317914	0.1928466137916436	0.26763637367332094	0.664377725948454	0.20797671166665074
314	5.322033898305085	0.5209193828009034	0.8864749193591852	0.803271314486925	0.5111325437295805	0.9704157051192045	1.2031411741125	0.5128287647192947	1.1025899503639356	1.6046835607585048	0.4920471327126151	0.8804993311706266	1.6435877301308717	0.564290967224791	0.921496128920421	1.641360237420157	0.492336394661694	1.2117027253672155	1.6649719230506688	0.3212584865753409	0.9429998962952958	0.8028018631833771	0.3230240735005036	1.0299568114095106	1.2040638274485371	0.3174688306920203	1.1512709477105236	1.5880869267679092	0.3218178273146059	0.928111975945092	1.6345729487377794	0.2711152625117245	1.0058609383868091	1.6404380856774397	0.34551357763549495	1.2315703997314427	1.649242132032522	0.4470847320396245	0.8180581721111533	0.2546402045099797	0.46866728776742106	0.6835835137667721	0.033303301273019545	0.4766868214654527	0.6863333130251634	0.16539698383327928	0.5750341005367952	0.7839892689931741	0.3405823033362765	0.6652714564372912	0.8693246527367232	0.5935454989994607	0.5257190980490349	0.6656300265289251	0.5012272679201416	0.4358908311234843	0.6372350039284571	0.4182902458539154	0.4291018767956029	0.6468740503190691	0.4232738100687707	0.42572263939171356	0.6604851912612657	0.49763885591140844	0.3075960474643551	0.833846436717138	0.316795231538508	0.21311679600277877	0.6803145587798592	0.5078662388598951	0.27203023583905667	0.714527132705242	0.3097606514317189	0.2880727391822548	0.7076929504408843	0.21767698395466456	0.28512393038783723	0.6988569427729541	0.1950986914214346	0.2746329928707223	0.675756303812562	0.2090039160937384
315	5.338983050847458	0.5209801966318559	0.8867528932318876	0.8033267619717539	0.5118824945034876	0.9687048272437876	1.1981746409986436	0.513893690306164	1.1012982652385521	1.600179352319302	0.4926873198995468	0.8799391325808639	1.6434719526481036	0.5565042496588943	0.9226004955746968	1.6422911815971282	0.4940795459537466	1.2095670536418184	1.6596891051843652	0.3207618599003887	0.9405687835011471	0.7978601399637298	0.32298017272853186	1.0299830274219581	1.2039867180489912	0.3175980805913848	1.1514421786501703	1.5882786561189886	0.32220386950439195	0.9272009896344185	1.6341611279131518	0.27151914530853394	1.004733104069101	1.639739761860929	0.34537870081884303	1.229020837844386	1.6482924577920113	0.44681001182014773	0.8179837363436674	0.2545205794124773	0.4688271680643875	0.6839361717258553	0.0370091666203457	0.4766598417087051	0.6862972273177808	0.16536662654402312	0.577935425724645	0.7694654490944534	0.3409576734950498	0.6653646803609048	0.8692001660396248	0.5935542526852247	0.5344381963927235	0.6775723336176469	0.5051195182561311	0.4328213910700269	0.6370386436483791	0.4190671967158745	0.4374784020118971	0.6367521105087848	0.4278443189195491	0.4259441709734745	0.6608425442827389	0.49835300428396095	0.30749337405700755	0.8337735901567065	0.3166705869080724	0.21335381913941526	0.6803002761840115	0.508013587116544	0.2757267030064446	0.7151682680492268	0.3132762379864193	0.28802632939370926	0.7054510667827729	0.2221894766634443	0.28594819999050375	0.697439561314648	0.20082654179006892	0.2794076208572706	0.6741448385288711	0.21712392409897063
316	5.3559322033898304	0.5209827342313127	0.8865827747680494	0.803375108792363	0.5113377275064133	0.9710122436807768	1.2035559858206784	0.5186577731109594	1.1174631871671301	1.6058818159712653	0.4968934215548349	0.89568146204609	1.6495779245050224	0.564145437713247	0.9223138495845485	1.641508104946356	0.49235428310924906	1.2116197350733842	1.6649650086789727	0.3209220007478566	0.9400237520990524	0.801529871999742	0.3220201952848245	1.0313917135650392	1.2084094409011146	0.3174204033775491	1.1513480413967558	1.5881878124255446	0.32194247169329726	0.928147617834688	1.6345736424928383	0.27116082473896647	1.0057514244831598	1.640368205915299	0.34499995717642024	1.229781436349803	1.6485770588762938	0.44228214422508766	0.8176762164580216	0.25838948450895527	0.4653693444334672	0.696578655168028	0.03520886652860347	0.47630358366391673	0.6846726741079565	0.16231720948079706	0.575183563905413	0.7838166671078531	0.34067702260045224	0.6653880297253346	0.8691146658575706	0.5935149205872225	0.5344476617082636	0.6783889436678072	0.5086926804298619	0.4332498943690509	0.6367085080936826	0.41960713972284047	0.441408785757688	0.6234562169913359	0.42798151326107836	0.430630451608286	0.6614373464604241	0.5024332504937655	0.303729868211568	0.821330330053706	0.3211143748686542	0.2131580220094815	0.6804696956011469	0.5078894925828578	0.2768622054410399	0.716707739661956	0.3140938972100492	0.29077618576653236	0.7029595536649843	0.22068320464688243	0.29070099432241964	0.6828333083341191	0.1990975057024866	0.27640819733924704	0.675362102558075	0.21230137044171563
